<?xml version="1.0" standalone="no"?>
<!DOCTYPE svg PUBLIC "-//W3C//DTD SVG 20010904//EN"
 "http://www.w3.org/TR/2001/REC-SVG-20010904/DTD/svg10.dtd">
<svg version="1.0" xmlns="http://www.w3.org/2000/svg"
 width="269.000000pt" height="269.000000pt" viewBox="0 0 269.000000 269.000000"
 preserveAspectRatio="xMidYMid meet">
<metadata>
Created by potrace 1.14, written by Peter Selinger 2001-2017
</metadata>
<g transform="translate(0.000000,269.000000) scale(0.100000,-0.100000)"
fill="#000000" stroke="none">
<path d="M1062 2630 c-22 -13 -50 -20 -85 -20 -39 0 -59 -5 -75 -20 -12 -12
-35 -20 -55 -20 -19 0 -42 -8 -55 -20 -12 -11 -32 -20 -45 -20 -13 0 -34 -9
-47 -20 -13 -11 -28 -20 -35 -20 -6 0 -22 -11 -35 -25 -13 -14 -32 -25 -42
-25 -10 0 -23 -9 -30 -20 -7 -11 -19 -20 -26 -20 -7 0 -24 -11 -38 -25 -14
-14 -28 -25 -33 -25 -25 0 -251 -250 -251 -278 0 -4 -9 -14 -20 -22 -11 -8
-20 -22 -20 -31 0 -10 -11 -31 -25 -47 -14 -17 -25 -36 -25 -44 0 -8 -9 -24
-20 -36 -11 -12 -20 -35 -20 -52 0 -17 -9 -40 -20 -52 -14 -15 -20 -36 -20
-67 0 -30 -7 -55 -20 -71 -18 -23 -20 -42 -20 -305 0 -263 2 -282 20 -305 13
-16 20 -41 20 -70 0 -34 5 -49 20 -60 14 -10 20 -26 20 -51 0 -23 7 -42 20
-54 11 -10 20 -28 20 -40 0 -12 11 -32 25 -45 14 -13 25 -31 25 -40 0 -8 9
-22 20 -30 11 -8 20 -21 20 -30 0 -9 9 -22 20 -30 11 -8 20 -19 20 -26 0 -28
253 -264 284 -264 9 0 16 -4 16 -10 0 -12 84 -70 103 -70 7 0 24 -11 37 -25
13 -14 34 -25 47 -25 13 0 33 -9 45 -20 12 -11 34 -20 48 -20 29 0 80 -21 80
-32 0 -5 22 -8 50 -8 31 0 63 -7 85 -20 33 -19 54 -20 303 -20 250 0 269 2
292 20 17 13 41 20 75 20 34 0 58 7 75 20 14 11 41 20 61 20 23 0 42 7 54 20
10 11 28 20 41 20 12 0 35 10 51 22 15 13 37 28 48 34 57 31 71 40 86 57 9 9
22 17 28 17 7 0 23 11 37 25 14 14 28 25 33 25 23 0 251 252 251 278 0 5 9 17
20 27 11 10 20 24 20 31 0 7 11 26 25 42 14 17 25 41 25 54 0 14 9 33 20 43
11 10 20 30 20 44 0 14 9 37 20 51 13 16 20 41 20 70 0 29 7 54 20 70 18 23
20 42 20 290 0 248 -2 267 -20 290 -13 16 -20 41 -20 71 0 33 -6 51 -20 64
-12 11 -20 31 -20 50 0 19 -8 39 -20 50 -11 10 -20 28 -20 40 0 12 -11 32 -25
45 -14 13 -25 33 -25 46 0 12 -7 28 -16 35 -9 7 -20 23 -25 36 -5 13 -15 23
-24 23 -8 0 -15 7 -15 15 0 9 -11 27 -25 41 -14 14 -25 28 -25 32 0 13 -86 98
-150 148 -33 26 -60 51 -60 55 0 5 -8 9 -18 9 -10 0 -24 9 -32 20 -8 11 -21
20 -28 20 -8 0 -27 11 -44 25 -16 14 -35 25 -41 25 -7 0 -23 9 -37 20 -14 11
-34 20 -46 20 -11 0 -30 9 -42 20 -12 11 -35 20 -54 20 -18 0 -44 9 -58 20
-17 13 -41 20 -72 20 -28 0 -62 8 -83 20 -33 19 -54 20 -283 20 -229 0 -249
-2 -280 -20z m528 -230 c30 -11 65 -19 77 -20 34 0 280 -115 324 -150 10 -8
32 -26 50 -40 81 -62 116 -96 180 -174 38 -47 69 -89 69 -94 0 -5 6 -15 14
-21 13 -11 31 -44 90 -173 14 -31 26 -68 26 -82 0 -14 9 -49 20 -78 17 -46 20
-77 20 -223 0 -146 -3 -177 -20 -223 -11 -29 -20 -62 -20 -75 0 -13 -9 -39
-19 -60 -10 -20 -22 -49 -26 -64 -3 -14 -15 -38 -26 -51 -10 -14 -19 -30 -19
-37 0 -7 -17 -35 -38 -62 -20 -26 -45 -59 -53 -73 -61 -95 -240 -243 -369
-306 -101 -49 -164 -74 -185 -74 -12 0 -44 -10 -71 -21 -44 -20 -64 -22 -269
-21 -195 1 -227 3 -279 21 -33 12 -65 21 -73 21 -15 0 -78 26 -163 68 -65 32
-191 114 -239 157 -78 68 -168 173 -190 220 -5 12 -16 27 -25 34 -9 7 -16 21
-16 30 0 10 -11 32 -25 51 -14 19 -25 41 -25 49 0 8 -7 22 -15 31 -9 10 -18
35 -21 56 -3 22 -15 61 -25 87 -17 42 -20 72 -20 243 0 174 3 200 21 241 11
25 20 60 20 78 0 18 9 44 20 58 11 14 20 31 20 39 0 38 119 221 204 315 50 55
165 148 221 179 113 62 156 84 169 84 9 0 30 9 48 20 18 11 47 20 63 20 17 0
53 9 80 20 43 17 76 19 245 19 167 0 203 -2 250 -19z"/>
<path d="M1299 2324 c-18 -22 -23 -114 -7 -144 16 -29 77 -40 96 -17 21 25 25
99 9 140 -14 32 -20 37 -50 37 -19 0 -40 -7 -48 -16z"/>
<path d="M1958 2033 c-41 -42 -48 -75 -22 -111 26 -37 75 -30 118 18 20 22 36
51 36 63 0 29 -27 55 -66 63 -24 4 -35 -1 -66 -33z"/>
<path d="M613 2048 c-19 -24 -21 -44 -8 -74 33 -78 119 -104 150 -44 22 42 19
54 -21 94 -29 29 -44 36 -74 36 -21 0 -42 -6 -47 -12z"/>
<path d="M1750 1872 c-8 -4 -102 -98 -208 -209 -174 -182 -196 -202 -233 -208
-48 -8 -79 -50 -79 -107 0 -70 34 -108 98 -108 40 0 58 -15 262 -216 212 -209
237 -230 272 -239 21 -5 30 -2 43 19 10 15 15 35 11 49 -3 13 -107 122 -231
244 -151 148 -225 228 -225 241 0 19 44 71 155 187 194 201 245 257 245 270 0
56 -61 99 -110 77z"/>
<path d="M332 1394 c-23 -16 -29 -57 -13 -83 12 -19 130 -28 160 -12 29 16 30
85 2 101 -30 16 -123 12 -149 -6z"/>
<path d="M2199 1389 c-16 -16 -20 -28 -15 -52 8 -40 20 -47 83 -47 88 0 115
20 105 76 -8 46 -133 63 -173 23z"/>
<path d="M643 768 c-51 -55 -58 -76 -36 -107 14 -18 31 -27 55 -29 30 -3 40 3
71 38 43 47 46 72 12 105 -33 34 -65 32 -102 -7z"/>
<path d="M1940 778 c-32 -35 -26 -72 21 -118 47 -45 49 -46 88 -25 55 28 55
75 1 127 -47 44 -79 48 -110 16z"/>
<path d="M1306 534 c-22 -21 -29 -57 -23 -111 6 -56 29 -77 72 -68 44 8 50 19
50 91 0 57 -3 68 -24 85 -28 23 -54 24 -75 3z"/>
</g>
</svg>
